<svg width="281" height="20" viewBox="0 0 281 20" fill="none" xmlns="http://www.w3.org/2000/svg">
<g clip-path="url(#clip0_87_9310)">
<path d="M6.05284 9.27942V19.6237H0V4.06725C0 1.18495 1.69736 0 3.63491 0C4.44356 0 5.22018 0.20016 6.28503 1.1209L17.2058 10.7206V0.344275H23.2586V15.9327C23.2586 18.8151 21.5292 20 19.5997 20C18.767 20 18.0144 19.7678 16.9496 18.8471L6.05284 9.27942Z" fill="#FEFEFE"/>
<path d="M40.5841 19.9441C31.0164 19.9441 26.2046 16.8616 26.2046 9.9761C26.2046 3.09059 31.0084 0.0321426 40.5841 0.0321426C50.1598 0.0321426 54.9956 3.09059 54.9956 9.9761C54.9956 16.8616 50.1517 19.9441 40.5841 19.9441ZM40.5841 5.64463C34.8195 5.64463 32.8579 6.13302 32.8579 9.96809C32.8579 13.8032 34.8195 14.3236 40.5841 14.3236C46.3487 14.3236 48.3343 13.7791 48.3343 9.96809C48.3343 6.15704 46.3727 5.64463 40.5841 5.64463Z" fill="#FEFEFE"/>
<path d="M85.1075 19.6238L83.1219 12.0178C82.8016 10.7207 82.5774 9.33562 82.5774 8.59102C82.001 9.77597 81.3925 10.9289 79.8392 13.603L77.5334 17.5502C76.3484 19.6559 75.3717 19.9681 73.7544 19.9681C72.1371 19.9681 71.1042 19.6799 69.8953 17.5502L67.3332 12.9385C65.8601 10.3444 65.4037 9.47973 64.9713 8.58301C64.8272 9.50375 64.595 10.6567 64.2828 11.8656L62.3532 19.6158H55.812L60.4797 2.98653C61.0562 0.968919 62.5294 -0.00786273 64.2267 -0.00786273C65.9241 -0.00786273 67.053 0.888855 67.8617 2.26596L71.0322 7.5662C72.8176 10.5366 73.4261 11.5694 73.8825 12.5222C74.3468 11.5694 74.9473 10.5606 76.7087 7.59022L79.8793 2.25795C80.6559 0.928887 81.7848 -0.0158691 83.5382 -0.0158691C85.1795 -0.0158691 86.6767 0.960913 87.2532 2.97853C88.7824 8.51095 90.2476 14.0754 91.7768 19.6078H85.1235L85.1075 19.6238Z" fill="#FEFEFE"/>
<path d="M106.581 19.944C97.0135 19.944 92.2017 16.8615 92.2017 9.97598C92.2017 3.09048 97.0135 0.0320282 106.581 0.0320282C116.149 0.0320282 120.993 3.09048 120.993 9.97598C120.993 16.8615 116.149 19.944 106.581 19.944ZM106.581 5.64452C100.817 5.64452 98.855 6.13291 98.855 9.96798C98.855 13.803 100.817 14.3235 106.581 14.3235C112.346 14.3235 114.331 13.779 114.331 9.96798C114.331 6.15693 112.37 5.64452 106.581 5.64452Z" fill="#FEFEFE"/>
<path d="M130.016 9.27942V19.6237H123.963V4.06725C123.963 1.18495 125.661 0 127.598 0C128.407 0 129.184 0.20016 130.248 1.1209L141.169 10.7206V0.344275H147.222V15.9327C147.222 18.8151 145.493 20 143.563 20C142.73 20 141.978 19.7678 140.913 18.8471L130.016 9.27942Z" fill="#FEFEFE"/>
<path d="M150.801 19.6237V0.344276H173.595L169.272 5.96477H157.486V7.58207H172.418L168.703 12.2818H157.494V14.0993H173.635L169.368 19.6317H150.809L150.801 19.6237Z" fill="#FEFEFE"/>
<path d="M185.765 19.6237V13.3947L174.092 0.344238H182.651L187.006 5.62046C187.783 6.5412 188.792 7.81421 189.168 8.50276C189.568 7.78219 190.497 6.5412 191.242 5.62046L195.389 0.344238H203.748L192.45 13.4267V19.6237H185.765Z" fill="#FEFEFE"/>
<path d="M202.947 19.6237V7.66209H220.209C220.817 7.66209 221.506 7.55 221.506 6.74136C221.506 6.0528 220.817 5.96473 220.297 5.96473H202.915L207.439 0.344238H220.033C224.757 0.344238 227.839 2.12967 227.839 5.70853C227.839 7.98235 226.63 9.19932 225.277 9.71173C226.974 10.2321 228.247 11.6973 228.247 13.9471C228.247 17.2057 226.486 19.6237 220.177 19.6237H202.939H202.947ZM209.632 12.2498V14.0912H220.209C221.162 14.0912 221.594 13.835 221.594 13.1385C221.594 12.53 221.162 12.2418 220.097 12.2418H209.632V12.2498Z" fill="#FEFEFE"/>
<path d="M231.273 19.6237V0.344276H254.067L249.744 5.96477H237.958V7.58207H252.89L249.175 12.2818H237.966V14.0993H254.107L249.84 19.6317H231.281L231.273 19.6237Z" fill="#FEFEFE"/>
<path d="M263.098 19.6237V5.96477H254.339L258.663 0.344276H280.448L276.125 5.96477H269.784V19.6237H263.098Z" fill="#FEFEFE"/>
</g>
<defs>
<clipPath id="clip0_87_9310">
<rect width="280.448" height="20" fill="white"/>
</clipPath>
</defs>
</svg>
