<svg width="92" height="20" viewBox="0 0 92 20" fill="none" xmlns="http://www.w3.org/2000/svg">
<g clip-path="url(#clip0_87_9321)">
<path d="M6.13691 9.27942V19.6237H0V4.06725C0 1.18495 1.72093 0 3.68539 0C4.50527 0 5.29268 0.20016 6.37232 1.1209L17.4447 10.7206V0.344275H23.5816V15.9327C23.5816 18.8151 21.8282 20 19.8719 20C19.0277 20 18.2646 19.7678 17.185 18.8471L6.13691 9.27942Z" fill="#FEFEFE"/>
<path d="M55.8732 19.6238L53.8601 12.0178C53.5354 10.7207 53.3081 9.33561 53.3081 8.59102C52.7236 9.77597 52.1067 10.9289 50.5318 13.603L48.194 17.5502C46.9926 19.6559 46.0022 19.9681 44.3625 19.9681C42.7227 19.9681 41.6755 19.6799 40.4498 17.5502L37.8521 12.9385C36.3585 10.3444 35.8958 9.47973 35.4574 8.58301C35.3113 9.50375 35.0759 10.6567 34.7593 11.8656L32.803 19.6158H26.1709L30.9035 2.98653C31.4879 0.968919 32.9816 -0.00786273 34.7025 -0.00786273C36.4234 -0.00786273 37.568 0.888855 38.3879 2.26596L41.6025 7.5662C43.4127 10.5366 44.0296 11.5694 44.4923 12.5222C44.9632 11.5694 45.572 10.5606 47.3579 7.59022L50.5724 2.25795C51.3598 0.928887 52.5044 -0.0158691 54.2822 -0.0158691C55.9463 -0.0158691 57.4643 0.960912 58.0487 2.97853C59.5992 8.51095 61.0847 14.0754 62.6352 19.6078H55.8895L55.8732 19.6238Z" fill="#FEFEFE"/>
<path d="M65.511 19.6237V7.66209H83.0125C83.6295 7.66209 84.3276 7.55 84.3276 6.74136C84.3276 6.0528 83.6295 5.96473 83.1018 5.96473H65.4785L70.065 0.344238H82.834C87.6233 0.344238 90.7486 2.12967 90.7486 5.70853C90.7486 7.98235 89.5229 9.19932 88.151 9.71173C89.8719 10.2321 91.1626 11.6973 91.1626 13.9471C91.1626 17.2057 89.3767 19.6237 82.9801 19.6237H65.5029H65.511ZM72.2892 12.2498V14.0912H83.0125C83.9785 14.0912 84.4169 13.835 84.4169 13.1385C84.4169 12.53 83.9785 12.2418 82.8989 12.2418H72.2892V12.2498Z" fill="#FEFEFE"/>
</g>
<defs>
<clipPath id="clip0_87_9321">
<rect width="91.25" height="20" fill="white"/>
</clipPath>
</defs>
</svg>
